{
	"asset":{
		"generator":"Khronos glTF Blender I/O v3.6.27",
		"version":"2.0"
	},
	"scene":0,
	"scenes":[
		{
			"name":"Scene",
			"nodes":[
				0
			]
		}
	],
	"nodes":[
		{
			"mesh":0,
			"name":"Cylinder",
			"scale":[
				0.603797972202301,
				0.05785499885678291,
				0.603797972202301
			],
			"translation":[
				0,
				0.29427874088287354,
				0
			]
		}
	],
	"materials":[
		{
			"doubleSided":true,
			"name":"Material.001",
			"pbrMetallicRoughness":{
				"baseColorTexture":{
					"index":0
				},
				"metallicFactor":0,
				"metallicRoughnessTexture":{
					"index":1
				}
			}
		},
		{
			"doubleSided":true,
			"name":"Material",
			"pbrMetallicRoughness":{
				"baseColorTexture":{
					"index":2
				},
				"metallicFactor":0,
				"roughnessFactor":0.5
			}
		}
	],
	"meshes":[
		{
			"name":"Cylinder",
			"primitives":[
				{
					"attributes":{
						"POSITION":0,
						"NORMAL":1,
						"TEXCOORD_0":2
					},
					"indices":3,
					"material":0
				},
				{
					"attributes":{
						"POSITION":4,
						"NORMAL":5,
						"TEXCOORD_0":6
					},
					"indices":7,
					"material":1
				}
			]
		}
	],
	"textures":[
		{
			"sampler":0,
			"source":0
		},
		{
			"sampler":0,
			"source":1
		},
		{
			"sampler":0,
			"source":2
		}
	],
	"images":[
		{
			"mimeType":"image/jpeg",
			"name":"Gravel023_8K-PNG_Color",
			"uri":"Gravel023_8K-PNG_Color.jpg"
		},
		{
			"mimeType":"image/jpeg",
			"name":"Gravel023_8K-PNG_Roughness",
			"uri":"Gravel023_8K-PNG_Roughness.jpg"
		},
		{
			"mimeType":"image/jpeg",
			"name":"ERB03",
			"uri":"ERB03.jpg"
		}
	],
	"accessors":[
		{
			"bufferView":0,
			"componentType":5126,
			"count":606,
			"max":[
				1,
				4.391461372375488,
				1
			],
			"min":[
				-1,
				-1,
				-1
			],
			"type":"VEC3"
		},
		{
			"bufferView":1,
			"componentType":5126,
			"count":606,
			"type":"VEC3"
		},
		{
			"bufferView":2,
			"componentType":5126,
			"count":606,
			"type":"VEC2"
		},
		{
			"bufferView":3,
			"componentType":5123,
			"count":1140,
			"type":"SCALAR"
		},
		{
			"bufferView":4,
			"componentType":5126,
			"count":1173548,
			"max":[
				0.5387044548988342,
				9.440162658691406,
				0.5850532054901123
			],
			"min":[
				-0.5042943954467773,
				3.3353817462921143,
				-0.4741900563240051
			],
			"type":"VEC3"
		},
		{
			"bufferView":5,
			"componentType":5126,
			"count":1173548,
			"type":"VEC3"
		},
		{
			"bufferView":6,
			"componentType":5126,
			"count":1173548,
			"type":"VEC2"
		},
		{
			"bufferView":7,
			"componentType":5125,
			"count":1174050,
			"type":"SCALAR"
		}
	],
	"bufferViews":[
		{
			"buffer":0,
			"byteLength":7272,
			"byteOffset":0,
			"target":34962
		},
		{
			"buffer":0,
			"byteLength":7272,
			"byteOffset":7272,
			"target":34962
		},
		{
			"buffer":0,
			"byteLength":4848,
			"byteOffset":14544,
			"target":34962
		},
		{
			"buffer":0,
			"byteLength":2280,
			"byteOffset":19392,
			"target":34963
		},
		{
			"buffer":0,
			"byteLength":14082576,
			"byteOffset":21672,
			"target":34962
		},
		{
			"buffer":0,
			"byteLength":14082576,
			"byteOffset":14104248,
			"target":34962
		},
		{
			"buffer":0,
			"byteLength":9388384,
			"byteOffset":28186824,
			"target":34962
		},
		{
			"buffer":0,
			"byteLength":4696200,
			"byteOffset":37575208,
			"target":34963
		}
	],
	"samplers":[
		{
			"magFilter":9729,
			"minFilter":9987
		}
	],
	"buffers":[
		{
			"byteLength":42271408,
			"uri":"ERB03.bin"
		}
	]
}
