{
	"asset":{
		"generator":"Khronos glTF Blender I/O v3.6.27",
		"version":"2.0"
	},
	"scene":0,
	"scenes":[
		{
			"name":"Scene",
			"nodes":[
				0,
				1
			]
		}
	],
	"nodes":[
		{
			"mesh":0,
			"name":"Cylinder",
			"scale":[
				0.603797972202301,
				0.05785499885678291,
				0.603797972202301
			],
			"translation":[
				0.026942148804664612,
				0.29427874088287354,
				0.023592382669448853
			]
		},
		{
			"mesh":1,
			"name":"RM01",
			"rotation":[
				0.70710688829422,
				0,
				0,
				0.7071066498756409
			],
			"scale":[
				2.4955201148986816,
				2.4955203533172607,
				2.4955203533172607
			],
			"translation":[
				0.14452272653579712,
				0.6898568868637085,
				4.5174431800842285
			]
		}
	],
	"materials":[
		{
			"doubleSided":true,
			"name":"Material.001",
			"pbrMetallicRoughness":{
				"baseColorTexture":{
					"index":0
				},
				"metallicFactor":0,
				"metallicRoughnessTexture":{
					"index":1
				}
			}
		},
		{
			"doubleSided":true,
			"name":"Material.002",
			"pbrMetallicRoughness":{
				"baseColorTexture":{
					"index":2
				},
				"metallicFactor":0,
				"roughnessFactor":0.5
			}
		}
	],
	"meshes":[
		{
			"name":"Cylinder",
			"primitives":[
				{
					"attributes":{
						"POSITION":0,
						"NORMAL":1,
						"TEXCOORD_0":2
					},
					"indices":3,
					"material":0
				}
			]
		},
		{
			"name":"RM01",
			"primitives":[
				{
					"attributes":{
						"COLOR_0":4,
						"POSITION":5,
						"NORMAL":6,
						"TEXCOORD_0":7
					},
					"indices":8,
					"material":1
				}
			]
		}
	],
	"textures":[
		{
			"sampler":0,
			"source":0
		},
		{
			"sampler":0,
			"source":1
		},
		{
			"sampler":0,
			"source":2
		}
	],
	"images":[
		{
			"mimeType":"image/jpeg",
			"name":"Gravel023_8K-PNG_Color",
			"uri":"Gravel023_8K-PNG_Color.jpg"
		},
		{
			"mimeType":"image/jpeg",
			"name":"Gravel023_8K-PNG_Roughness",
			"uri":"Gravel023_8K-PNG_Roughness.jpg"
		},
		{
			"mimeType":"image/jpeg",
			"name":"RM01",
			"uri":"RM01.jpg"
		}
	],
	"accessors":[
		{
			"bufferView":0,
			"componentType":5126,
			"count":618,
			"max":[
				0.9990812540054321,
				4.391461372375488,
				0.9990812540054321
			],
			"min":[
				-1,
				-1,
				-1
			],
			"type":"VEC3"
		},
		{
			"bufferView":1,
			"componentType":5126,
			"count":618,
			"type":"VEC3"
		},
		{
			"bufferView":2,
			"componentType":5126,
			"count":618,
			"type":"VEC2"
		},
		{
			"bufferView":3,
			"componentType":5123,
			"count":1140,
			"type":"SCALAR"
		},
		{
			"bufferView":4,
			"componentType":5123,
			"count":194508,
			"normalized":true,
			"type":"VEC4"
		},
		{
			"bufferView":5,
			"componentType":5126,
			"count":194508,
			"max":[
				0.024181999266147614,
				-1.7863731384277344,
				0.061710234731435776
			],
			"min":[
				-0.11977600306272507,
				-1.858106017112732,
				-0.02971399948000908
			],
			"type":"VEC3"
		},
		{
			"bufferView":6,
			"componentType":5126,
			"count":194508,
			"type":"VEC3"
		},
		{
			"bufferView":7,
			"componentType":5126,
			"count":194508,
			"type":"VEC2"
		},
		{
			"bufferView":8,
			"componentType":5125,
			"count":194520,
			"type":"SCALAR"
		}
	],
	"bufferViews":[
		{
			"buffer":0,
			"byteLength":7416,
			"byteOffset":0,
			"target":34962
		},
		{
			"buffer":0,
			"byteLength":7416,
			"byteOffset":7416,
			"target":34962
		},
		{
			"buffer":0,
			"byteLength":4944,
			"byteOffset":14832,
			"target":34962
		},
		{
			"buffer":0,
			"byteLength":2280,
			"byteOffset":19776,
			"target":34963
		},
		{
			"buffer":0,
			"byteLength":1556064,
			"byteOffset":22056,
			"target":34962
		},
		{
			"buffer":0,
			"byteLength":2334096,
			"byteOffset":1578120,
			"target":34962
		},
		{
			"buffer":0,
			"byteLength":2334096,
			"byteOffset":3912216,
			"target":34962
		},
		{
			"buffer":0,
			"byteLength":1556064,
			"byteOffset":6246312,
			"target":34962
		},
		{
			"buffer":0,
			"byteLength":778080,
			"byteOffset":7802376,
			"target":34963
		}
	],
	"samplers":[
		{
			"magFilter":9729,
			"minFilter":9987
		}
	],
	"buffers":[
		{
			"byteLength":8580456,
			"uri":"RM01.bin"
		}
	]
}
