{
	"asset":{
		"generator":"Khronos glTF Blender I/O v3.6.27",
		"version":"2.0"
	},
	"extensionsUsed":[
		"KHR_materials_specular",
		"KHR_materials_ior"
	],
	"scene":0,
	"scenes":[
		{
			"name":"Scene",
			"nodes":[
				0
			]
		}
	],
	"nodes":[
		{
			"mesh":0,
			"name":"Cylinder",
			"scale":[
				0.603797972202301,
				0.05785499885678291,
				0.603797972202301
			],
			"translation":[
				0,
				0.29427874088287354,
				0
			]
		}
	],
	"materials":[
		{
			"doubleSided":true,
			"name":"Material.001",
			"pbrMetallicRoughness":{
				"baseColorTexture":{
					"index":0
				},
				"metallicFactor":0,
				"metallicRoughnessTexture":{
					"index":1
				}
			}
		},
		{
			"doubleSided":true,
			"extensions":{
				"KHR_materials_specular":{
					"specularColorFactor":[
						0,
						0,
						0
					]
				},
				"KHR_materials_ior":{
					"ior":1.4500000476837158
				}
			},
			"name":"09E",
			"pbrMetallicRoughness":{
				"baseColorTexture":{
					"index":2
				},
				"metallicFactor":0
			}
		}
	],
	"meshes":[
		{
			"name":"Cylinder",
			"primitives":[
				{
					"attributes":{
						"POSITION":0,
						"NORMAL":1,
						"TEXCOORD_0":2
					},
					"indices":3,
					"material":0
				},
				{
					"attributes":{
						"POSITION":4,
						"NORMAL":5,
						"TEXCOORD_0":6
					},
					"indices":7,
					"material":1
				}
			]
		}
	],
	"textures":[
		{
			"sampler":0,
			"source":0
		},
		{
			"sampler":0,
			"source":1
		},
		{
			"sampler":0,
			"source":2
		}
	],
	"images":[
		{
			"mimeType":"image/jpeg",
			"name":"Gravel023_8K-PNG_Color",
			"uri":"Gravel023_8K-PNG_Color.jpg"
		},
		{
			"mimeType":"image/jpeg",
			"name":"Gravel023_8K-PNG_Roughness",
			"uri":"Gravel023_8K-PNG_Roughness.jpg"
		},
		{
			"mimeType":"image/jpeg",
			"name":"09E",
			"uri":"09E.jpg"
		}
	],
	"accessors":[
		{
			"bufferView":0,
			"componentType":5126,
			"count":606,
			"max":[
				1,
				4.391461372375488,
				1
			],
			"min":[
				-1,
				-1,
				-1
			],
			"type":"VEC3"
		},
		{
			"bufferView":1,
			"componentType":5126,
			"count":606,
			"type":"VEC3"
		},
		{
			"bufferView":2,
			"componentType":5126,
			"count":606,
			"type":"VEC2"
		},
		{
			"bufferView":3,
			"componentType":5123,
			"count":1140,
			"type":"SCALAR"
		},
		{
			"bufferView":4,
			"componentType":5126,
			"count":158728,
			"max":[
				0.4089429974555969,
				7.369150161743164,
				0.3702971339225769
			],
			"min":[
				-0.46763190627098083,
				3.366236925125122,
				-0.31989166140556335
			],
			"type":"VEC3"
		},
		{
			"bufferView":5,
			"componentType":5126,
			"count":158728,
			"type":"VEC3"
		},
		{
			"bufferView":6,
			"componentType":5126,
			"count":158728,
			"type":"VEC2"
		},
		{
			"bufferView":7,
			"componentType":5125,
			"count":158802,
			"type":"SCALAR"
		}
	],
	"bufferViews":[
		{
			"buffer":0,
			"byteLength":7272,
			"byteOffset":0,
			"target":34962
		},
		{
			"buffer":0,
			"byteLength":7272,
			"byteOffset":7272,
			"target":34962
		},
		{
			"buffer":0,
			"byteLength":4848,
			"byteOffset":14544,
			"target":34962
		},
		{
			"buffer":0,
			"byteLength":2280,
			"byteOffset":19392,
			"target":34963
		},
		{
			"buffer":0,
			"byteLength":1904736,
			"byteOffset":21672,
			"target":34962
		},
		{
			"buffer":0,
			"byteLength":1904736,
			"byteOffset":1926408,
			"target":34962
		},
		{
			"buffer":0,
			"byteLength":1269824,
			"byteOffset":3831144,
			"target":34962
		},
		{
			"buffer":0,
			"byteLength":635208,
			"byteOffset":5100968,
			"target":34963
		}
	],
	"samplers":[
		{
			"magFilter":9729,
			"minFilter":9987
		}
	],
	"buffers":[
		{
			"byteLength":5736176,
			"uri":"ESS01.bin"
		}
	]
}
