{
	"asset":{
		"generator":"Khronos glTF Blender I/O v3.6.27",
		"version":"2.0"
	},
	"extensionsUsed":[
		"KHR_materials_specular",
		"KHR_materials_ior"
	],
	"scene":0,
	"scenes":[
		{
			"name":"Scene",
			"nodes":[
				0,
				1
			]
		}
	],
	"nodes":[
		{
			"mesh":0,
			"name":"Cylinder",
			"scale":[
				0.6037976741790771,
				0.05785521864891052,
				0.6037976741790771
			],
			"translation":[
				0.010400302708148956,
				0.29427874088287354,
				-0.009051814675331116
			]
		},
		{
			"mesh":1,
			"name":"cap 6",
			"rotation":[
				0.472481369972229,
				-0.5260810852050781,
				-0.5260811448097229,
				0.4724814295768738
			],
			"scale":[
				2.495516777038574,
				2.4955170154571533,
				2.495516777038574
			],
			"translation":[
				0.1034509539604187,
				0.14941850304603577,
				7.185664176940918
			]
		}
	],
	"materials":[
		{
			"doubleSided":true,
			"name":"Material.001",
			"pbrMetallicRoughness":{
				"baseColorTexture":{
					"index":0
				},
				"metallicFactor":0,
				"metallicRoughnessTexture":{
					"index":1
				}
			}
		},
		{
			"doubleSided":true,
			"extensions":{
				"KHR_materials_specular":{
					"specularColorFactor":[
						0,
						0,
						0
					]
				},
				"KHR_materials_ior":{
					"ior":1.4500000476837158
				}
			},
			"name":"cap_6",
			"pbrMetallicRoughness":{
				"metallicFactor":0
			}
		}
	],
	"meshes":[
		{
			"name":"Cylinder",
			"primitives":[
				{
					"attributes":{
						"POSITION":0,
						"NORMAL":1,
						"TEXCOORD_0":2
					},
					"indices":3,
					"material":0
				}
			]
		},
		{
			"name":"cap 6",
			"primitives":[
				{
					"attributes":{
						"COLOR_0":4,
						"POSITION":5,
						"NORMAL":6,
						"TEXCOORD_0":7
					},
					"indices":8,
					"material":1
				}
			]
		}
	],
	"textures":[
		{
			"sampler":0,
			"source":0
		},
		{
			"sampler":0,
			"source":1
		}
	],
	"images":[
		{
			"mimeType":"image/jpeg",
			"name":"Gravel023_8K-PNG_Color",
			"uri":"Gravel023_8K-PNG_Color.jpg"
		},
		{
			"mimeType":"image/jpeg",
			"name":"Gravel023_8K-PNG_Roughness",
			"uri":"Gravel023_8K-PNG_Roughness.jpg"
		}
	],
	"accessors":[
		{
			"bufferView":0,
			"componentType":5126,
			"count":618,
			"max":[
				0.9990812540054321,
				4.391461372375488,
				0.9990812540054321
			],
			"min":[
				-1,
				-1,
				-1
			],
			"type":"VEC3"
		},
		{
			"bufferView":1,
			"componentType":5126,
			"count":618,
			"type":"VEC3"
		},
		{
			"bufferView":2,
			"componentType":5126,
			"count":618,
			"type":"VEC2"
		},
		{
			"bufferView":3,
			"componentType":5123,
			"count":1140,
			"type":"SCALAR"
		},
		{
			"bufferView":4,
			"componentType":5123,
			"count":102184,
			"normalized":true,
			"type":"VEC4"
		},
		{
			"bufferView":5,
			"componentType":5126,
			"count":102184,
			"max":[
				-0.13945960998535156,
				-2.795980930328369,
				0.14362360537052155
			],
			"min":[
				-0.24834899604320526,
				-2.9930601119995117,
				-0.03275600075721741
			],
			"type":"VEC3"
		},
		{
			"bufferView":6,
			"componentType":5126,
			"count":102184,
			"type":"VEC3"
		},
		{
			"bufferView":7,
			"componentType":5126,
			"count":102184,
			"type":"VEC2"
		},
		{
			"bufferView":8,
			"componentType":5125,
			"count":102192,
			"type":"SCALAR"
		}
	],
	"bufferViews":[
		{
			"buffer":0,
			"byteLength":7416,
			"byteOffset":0,
			"target":34962
		},
		{
			"buffer":0,
			"byteLength":7416,
			"byteOffset":7416,
			"target":34962
		},
		{
			"buffer":0,
			"byteLength":4944,
			"byteOffset":14832,
			"target":34962
		},
		{
			"buffer":0,
			"byteLength":2280,
			"byteOffset":19776,
			"target":34963
		},
		{
			"buffer":0,
			"byteLength":817472,
			"byteOffset":22056,
			"target":34962
		},
		{
			"buffer":0,
			"byteLength":1226208,
			"byteOffset":839528,
			"target":34962
		},
		{
			"buffer":0,
			"byteLength":1226208,
			"byteOffset":2065736,
			"target":34962
		},
		{
			"buffer":0,
			"byteLength":817472,
			"byteOffset":3291944,
			"target":34962
		},
		{
			"buffer":0,
			"byteLength":408768,
			"byteOffset":4109416,
			"target":34963
		}
	],
	"samplers":[
		{
			"magFilter":9729,
			"minFilter":9987
		}
	],
	"buffers":[
		{
			"byteLength":4518184,
			"uri":"OBJ_6.bin"
		}
	]
}
