{
	"asset":{
		"generator":"Khronos glTF Blender I/O v3.6.27",
		"version":"2.0"
	},
	"scene":0,
	"scenes":[
		{
			"name":"Scene",
			"nodes":[
				0
			]
		}
	],
	"nodes":[
		{
			"mesh":0,
			"name":"Cylinder",
			"rotation":[
				0.7071068286895752,
				0,
				0,
				0.7071068286895752
			]
		}
	],
	"materials":[
		{
			"doubleSided":true,
			"name":"Material.002",
			"pbrMetallicRoughness":{
				"baseColorTexture":{
					"index":0
				},
				"metallicFactor":0,
				"metallicRoughnessTexture":{
					"index":1
				}
			}
		},
		{
			"doubleSided":true,
			"name":"Material.001",
			"pbrMetallicRoughness":{
				"baseColorTexture":{
					"index":2
				},
				"metallicFactor":0,
				"roughnessFactor":0.5
			}
		}
	],
	"meshes":[
		{
			"name":"Cylinder",
			"primitives":[
				{
					"attributes":{
						"POSITION":0,
						"NORMAL":1,
						"TEXCOORD_0":2
					},
					"indices":3,
					"material":0
				},
				{
					"attributes":{
						"POSITION":4,
						"NORMAL":5,
						"TEXCOORD_0":6
					},
					"indices":7,
					"material":1
				}
			]
		}
	],
	"textures":[
		{
			"sampler":0,
			"source":0
		},
		{
			"sampler":0,
			"source":1
		},
		{
			"sampler":0,
			"source":2
		}
	],
	"images":[
		{
			"mimeType":"image/jpeg",
			"name":"Gravel023_8K-PNG_Color",
			"uri":"Gravel023_8K-PNG_Color.jpg"
		},
		{
			"mimeType":"image/jpeg",
			"name":"Gravel023_8K-PNG_Roughness",
			"uri":"Gravel023_8K-PNG_Roughness.jpg"
		},
		{
			"mimeType":"image/jpeg",
			"name":"ABR02",
			"uri":"ABR02.jpg"
		}
	],
	"accessors":[
		{
			"bufferView":0,
			"componentType":5126,
			"count":606,
			"max":[
				0.603797972202301,
				0.603797972202301,
				-0.23642399907112122
			],
			"min":[
				-0.603797972202301,
				-0.603797972202301,
				-0.548346996307373
			],
			"type":"VEC3"
		},
		{
			"bufferView":1,
			"componentType":5126,
			"count":606,
			"type":"VEC3"
		},
		{
			"bufferView":2,
			"componentType":5126,
			"count":606,
			"type":"VEC2"
		},
		{
			"bufferView":3,
			"componentType":5123,
			"count":1140,
			"type":"SCALAR"
		},
		{
			"bufferView":4,
			"componentType":5126,
			"count":445325,
			"max":[
				0.34261101484298706,
				0.26739200949668884,
				-0.49042999744415283
			],
			"min":[
				-0.3187130093574524,
				-0.26360899209976196,
				-0.9104769825935364
			],
			"type":"VEC3"
		},
		{
			"bufferView":5,
			"componentType":5126,
			"count":445325,
			"type":"VEC3"
		},
		{
			"bufferView":6,
			"componentType":5126,
			"count":445325,
			"type":"VEC2"
		},
		{
			"bufferView":7,
			"componentType":5125,
			"count":445413,
			"type":"SCALAR"
		}
	],
	"bufferViews":[
		{
			"buffer":0,
			"byteLength":7272,
			"byteOffset":0,
			"target":34962
		},
		{
			"buffer":0,
			"byteLength":7272,
			"byteOffset":7272,
			"target":34962
		},
		{
			"buffer":0,
			"byteLength":4848,
			"byteOffset":14544,
			"target":34962
		},
		{
			"buffer":0,
			"byteLength":2280,
			"byteOffset":19392,
			"target":34963
		},
		{
			"buffer":0,
			"byteLength":5343900,
			"byteOffset":21672,
			"target":34962
		},
		{
			"buffer":0,
			"byteLength":5343900,
			"byteOffset":5365572,
			"target":34962
		},
		{
			"buffer":0,
			"byteLength":3562600,
			"byteOffset":10709472,
			"target":34962
		},
		{
			"buffer":0,
			"byteLength":1781652,
			"byteOffset":14272072,
			"target":34963
		}
	],
	"samplers":[
		{
			"magFilter":9729,
			"minFilter":9987
		}
	],
	"buffers":[
		{
			"byteLength":16053724,
			"uri":"ABR02.bin"
		}
	]
}
