{
	"asset":{
		"generator":"Khronos glTF Blender I/O v3.6.27",
		"version":"2.0"
	},
	"scene":0,
	"scenes":[
		{
			"name":"Scene",
			"nodes":[
				0,
				1
			]
		}
	],
	"nodes":[
		{
			"mesh":0,
			"name":"Cylinder",
			"scale":[
				0.603797972202301,
				0.05785499885678291,
				0.603797972202301
			],
			"translation":[
				0.008954806253314018,
				0.29149866104125977,
				-0.05739312991499901
			]
		},
		{
			"mesh":1,
			"name":"DAA01",
			"rotation":[
				0.6387526988983154,
				0,
				0,
				0.769412100315094
			],
			"scale":[
				0.7050815224647522,
				0.7050814628601074,
				0.7050814628601074
			],
			"translation":[
				0.04152130335569382,
				0.6409508585929871,
				-0.06067134439945221
			]
		}
	],
	"materials":[
		{
			"doubleSided":true,
			"name":"Material.001",
			"pbrMetallicRoughness":{
				"baseColorTexture":{
					"index":0
				},
				"metallicFactor":0,
				"metallicRoughnessTexture":{
					"index":1
				}
			}
		},
		{
			"doubleSided":true,
			"name":"Material.002",
			"pbrMetallicRoughness":{
				"baseColorTexture":{
					"index":2
				},
				"metallicFactor":0,
				"roughnessFactor":0.5
			}
		}
	],
	"meshes":[
		{
			"name":"Cylinder",
			"primitives":[
				{
					"attributes":{
						"POSITION":0,
						"NORMAL":1,
						"TEXCOORD_0":2
					},
					"indices":3,
					"material":0
				}
			]
		},
		{
			"name":"DAA01",
			"primitives":[
				{
					"attributes":{
						"COLOR_0":4,
						"POSITION":5,
						"NORMAL":6,
						"TEXCOORD_0":7
					},
					"indices":8,
					"material":1
				}
			]
		}
	],
	"textures":[
		{
			"sampler":0,
			"source":0
		},
		{
			"sampler":0,
			"source":1
		},
		{
			"sampler":0,
			"source":2
		}
	],
	"images":[
		{
			"mimeType":"image/jpeg",
			"name":"Gravel023_8K-PNG_Color",
			"uri":"Gravel023_8K-PNG_Color.jpg"
		},
		{
			"mimeType":"image/jpeg",
			"name":"Gravel023_8K-PNG_Roughness",
			"uri":"Gravel023_8K-PNG_Roughness.jpg"
		},
		{
			"mimeType":"image/jpeg",
			"name":"DAA01",
			"uri":"DAA01.jpg"
		}
	],
	"accessors":[
		{
			"bufferView":0,
			"componentType":5126,
			"count":618,
			"max":[
				0.9990812540054321,
				4.391461372375488,
				0.9990812540054321
			],
			"min":[
				-1,
				-1,
				-1
			],
			"type":"VEC3"
		},
		{
			"bufferView":1,
			"componentType":5126,
			"count":618,
			"type":"VEC3"
		},
		{
			"bufferView":2,
			"componentType":5126,
			"count":618,
			"type":"VEC2"
		},
		{
			"bufferView":3,
			"componentType":5123,
			"count":1140,
			"type":"SCALAR"
		},
		{
			"bufferView":4,
			"componentType":5123,
			"count":37025,
			"normalized":true,
			"type":"VEC4"
		},
		{
			"bufferView":5,
			"componentType":5126,
			"count":37025,
			"max":[
				0.3128282427787781,
				0.33005720376968384,
				0.30462607741355896
			],
			"min":[
				-0.3517547845840454,
				-0.33095455169677734,
				-0.25671443343162537
			],
			"type":"VEC3"
		},
		{
			"bufferView":6,
			"componentType":5126,
			"count":37025,
			"type":"VEC3"
		},
		{
			"bufferView":7,
			"componentType":5126,
			"count":37025,
			"type":"VEC2"
		},
		{
			"bufferView":8,
			"componentType":5123,
			"count":37035,
			"type":"SCALAR"
		}
	],
	"bufferViews":[
		{
			"buffer":0,
			"byteLength":7416,
			"byteOffset":0,
			"target":34962
		},
		{
			"buffer":0,
			"byteLength":7416,
			"byteOffset":7416,
			"target":34962
		},
		{
			"buffer":0,
			"byteLength":4944,
			"byteOffset":14832,
			"target":34962
		},
		{
			"buffer":0,
			"byteLength":2280,
			"byteOffset":19776,
			"target":34963
		},
		{
			"buffer":0,
			"byteLength":296200,
			"byteOffset":22056,
			"target":34962
		},
		{
			"buffer":0,
			"byteLength":444300,
			"byteOffset":318256,
			"target":34962
		},
		{
			"buffer":0,
			"byteLength":444300,
			"byteOffset":762556,
			"target":34962
		},
		{
			"buffer":0,
			"byteLength":296200,
			"byteOffset":1206856,
			"target":34962
		},
		{
			"buffer":0,
			"byteLength":74070,
			"byteOffset":1503056,
			"target":34963
		}
	],
	"samplers":[
		{
			"magFilter":9729,
			"minFilter":9987
		}
	],
	"buffers":[
		{
			"byteLength":1577128,
			"uri":"DAA01.bin"
		}
	]
}
